<svg width="21" height="21" viewBox="0 0 21 21" fill="none" xmlns="http://www.w3.org/2000/svg">
<g id="Frame">
<path id="Vector" d="M13.7812 9.1875V5.25C13.7812 4.37976 13.4355 3.54516 12.8202 2.92981C12.2048 2.31445 11.3702 1.96875 10.5 1.96875C9.62975 1.96875 8.79515 2.31445 8.17979 2.92981C7.56444 3.54516 7.21874 4.37976 7.21874 5.25V9.1875M17.1552 7.44362L18.2604 17.9436C18.3216 18.5255 17.8666 19.0312 17.2812 19.0312H3.71874C3.58067 19.0314 3.44411 19.0025 3.31794 18.9464C3.19177 18.8904 3.0788 18.8084 2.98638 18.7058C2.89396 18.6032 2.82415 18.4824 2.78148 18.3511C2.73882 18.2197 2.72426 18.0809 2.73874 17.9436L3.84474 7.44362C3.87025 7.20174 3.98441 6.97786 4.16521 6.81516C4.346 6.65246 4.58063 6.56246 4.82386 6.5625H16.1761C16.6801 6.5625 17.1027 6.94312 17.1552 7.44362ZM7.54686 9.1875C7.54686 9.27452 7.51229 9.35798 7.45076 9.41952C7.38922 9.48106 7.30576 9.51562 7.21874 9.51562C7.13171 9.51562 7.04825 9.48106 6.98672 9.41952C6.92518 9.35798 6.89061 9.27452 6.89061 9.1875C6.89061 9.10048 6.92518 9.01702 6.98672 8.95548C7.04825 8.89394 7.13171 8.85938 7.21874 8.85938C7.30576 8.85938 7.38922 8.89394 7.45076 8.95548C7.51229 9.01702 7.54686 9.10048 7.54686 9.1875ZM14.1094 9.1875C14.1094 9.27452 14.0748 9.35798 14.0133 9.41952C13.9517 9.48106 13.8683 9.51562 13.7812 9.51562C13.6942 9.51562 13.6108 9.48106 13.5492 9.41952C13.4877 9.35798 13.4531 9.27452 13.4531 9.1875C13.4531 9.10048 13.4877 9.01702 13.5492 8.95548C13.6108 8.89394 13.6942 8.85938 13.7812 8.85938C13.8683 8.85938 13.9517 8.89394 14.0133 8.95548C14.0748 9.01702 14.1094 9.10048 14.1094 9.1875Z" stroke="white" stroke-width="1.5" stroke-linecap="round" stroke-linejoin="round"/>
</g>
</svg>
